<svg width="70" height="70" viewBox="0 0 70 70" fill="none" xmlns="http://www.w3.org/2000/svg">
<rect width="70" height="70" rx="35" fill="#E1F5FE"/>
<path d="M35 52C44.3888 52 52 44.3888 52 35C52 25.6112 44.3888 18 35 18C25.6112 18 18 25.6112 18 35C18 44.3888 25.6112 52 35 52Z" stroke="#0D6EFD" stroke-width="3" stroke-linecap="round" stroke-linejoin="round"/>
<path d="M30.7028 34.8915L33.0547 37.3492L35.8652 34.1507L39.0285 37.3845L44.5555 30.4582L42.721 29L38.8404 33.8332L35.7476 30.6816L33.0547 33.8684L30.8087 31.5165L26.34 35.9499L28.0099 37.6197L30.7028 34.8915ZM25.999 39.4895V41.1358H44.8142V39.4895H25.999Z" fill="#0D6EFD"/>
</svg>
