<svg width="70" height="71" viewBox="0 0 70 71" fill="none" xmlns="http://www.w3.org/2000/svg">
<rect y="0.375" width="70" height="70" rx="35" fill="#E8F5E9"/>
<path d="M35 18.375C25.6111 18.375 18 25.9861 18 35.375C18 44.7639 25.6111 52.375 35 52.375C44.3889 52.375 52 44.7639 52 35.375C52 25.9861 44.3889 18.375 35 18.375ZM35 21.6653C42.5768 21.6653 48.7097 27.797 48.7097 35.375C48.7097 42.9518 42.578 49.0847 35 49.0847C27.4232 49.0847 21.2903 42.953 21.2903 35.375C21.2903 27.7982 27.422 21.6653 35 21.6653ZM44.6108 30.5949L43.066 29.0376C42.746 28.7151 42.2252 28.713 41.9027 29.033L32.2132 38.6446L28.1146 34.5127C27.7947 34.1901 27.2738 34.188 26.9513 34.5079L25.394 36.0527C25.0715 36.3727 25.0693 36.8935 25.3893 37.2161L31.6122 43.4893C31.9321 43.8119 32.4529 43.814 32.7755 43.494L44.6062 31.7583C44.9286 31.4383 44.9307 30.9174 44.6108 30.5949Z" fill="#43A047"/>
</svg>
