<svg width="70" height="70" viewBox="0 0 70 70" fill="none" xmlns="http://www.w3.org/2000/svg">
<rect width="70" height="70" rx="35" fill="#EDE7F6"/>
<path d="M21.7876 33.1124C23.8698 33.1124 25.5627 31.4195 25.5627 29.3373C25.5627 27.2551 23.8698 25.5623 21.7876 25.5623C19.7054 25.5623 18.0125 27.2551 18.0125 29.3373C18.0125 31.4195 19.7054 33.1124 21.7876 33.1124ZM48.2132 33.1124C50.2954 33.1124 51.9883 31.4195 51.9883 29.3373C51.9883 27.2551 50.2954 25.5623 48.2132 25.5623C46.131 25.5623 44.4381 27.2551 44.4381 29.3373C44.4381 31.4195 46.131 33.1124 48.2132 33.1124ZM50.1008 35H46.3257C45.2875 35 44.3497 35.4188 43.6654 36.0971C46.0426 37.4007 47.7295 39.7542 48.0953 42.5501H51.9883C53.0324 42.5501 53.8759 41.7066 53.8759 40.6626V38.7751C53.8759 36.6929 52.183 35 50.1008 35ZM35.0004 35C38.6516 35 41.6068 32.0448 41.6068 28.3936C41.6068 24.7424 38.6516 21.7872 35.0004 21.7872C31.3492 21.7872 28.394 24.7424 28.394 28.3936C28.394 32.0448 31.3492 35 35.0004 35ZM39.5305 36.8875H39.041C37.814 37.4774 36.4515 37.8313 35.0004 37.8313C33.5494 37.8313 32.1927 37.4774 30.9599 36.8875H30.4703C26.7188 36.8875 23.6752 39.9312 23.6752 43.6827V45.3815C23.6752 46.9446 24.9434 48.2128 26.5065 48.2128H43.4944C45.0575 48.2128 46.3257 46.9446 46.3257 45.3815V43.6827C46.3257 39.9312 43.282 36.8875 39.5305 36.8875ZM26.3354 36.0971C25.6512 35.4188 24.7133 35 23.6752 35H19.9001C17.8179 35 16.125 36.6929 16.125 38.7751V40.6626C16.125 41.7066 16.9685 42.5501 18.0125 42.5501H21.8997C22.2713 39.7542 23.9583 37.4007 26.3354 36.0971Z" fill="#673AB7"/>
</svg>
