<svg width="276" height="96" viewBox="0 0 276 96" fill="none" xmlns="http://www.w3.org/2000/svg">
<path d="M14.5 73.5C14.5 70.7386 16.7386 68.5 19.5 68.5H40.5C43.2614 68.5 45.5 70.7386 45.5 73.5V85.5H14.5V73.5Z" fill="#039BE5"/>
<path d="M50.5 61.5C50.5 58.7386 52.7386 56.5 55.5 56.5H76.5C79.2614 56.5 81.5 58.7386 81.5 61.5V85.5H50.5V61.5Z" fill="#039BE5"/>
<path d="M86.5 46.5C86.5 43.7386 88.7386 41.5 91.5 41.5H112.5C115.261 41.5 117.5 43.7386 117.5 46.5V85.5H86.5V46.5Z" fill="#039BE5"/>
<path d="M122.5 32.5C122.5 29.7386 124.739 27.5 127.5 27.5H148.5C151.261 27.5 153.5 29.7386 153.5 32.5V85.5H122.5V32.5Z" fill="#039BE5"/>
<path d="M158.5 15.5833C158.5 12.8219 160.739 10.5833 163.5 10.5833H184.5C187.261 10.5833 189.5 12.8219 189.5 15.5833V85.5H158.5V15.5833Z" fill="#039BE5"/>
<path d="M194.5 8.5C194.5 5.73858 196.739 3.5 199.5 3.5H220.5C223.261 3.5 225.5 5.73858 225.5 8.5V85.5H194.5V8.5Z" fill="#039BE5"/>
<path d="M230.5 32.5C230.5 29.7386 232.739 27.5 235.5 27.5H256.5C259.261 27.5 261.5 29.7386 261.5 32.5V85.5H230.5V32.5Z" fill="#039BE5"/>
</svg>
