<svg width="276" height="96" viewBox="0 0 276 96" fill="none" xmlns="http://www.w3.org/2000/svg">
<path d="M14.5 73.3333C14.5 70.5719 16.7386 68.3333 19.5 68.3333H40.5C43.2614 68.3333 45.5 70.5719 45.5 73.3333V85.3333H14.5V73.3333Z" fill="#F4511E"/>
<path d="M50.5 61.3333C50.5 58.5719 52.7386 56.3333 55.5 56.3333H76.5C79.2614 56.3333 81.5 58.5719 81.5 61.3333V85.3333H50.5V61.3333Z" fill="#F4511E"/>
<path d="M86.5 46.3333C86.5 43.5719 88.7386 41.3333 91.5 41.3333H112.5C115.261 41.3333 117.5 43.5719 117.5 46.3333V85.3333H86.5V46.3333Z" fill="#F4511E"/>
<path d="M122.5 32.3333C122.5 29.5719 124.739 27.3333 127.5 27.3333H148.5C151.261 27.3333 153.5 29.5719 153.5 32.3333V85.3333H122.5V32.3333Z" fill="#F4511E"/>
<path d="M158.5 15.4167C158.5 12.6552 160.739 10.4167 163.5 10.4167H184.5C187.261 10.4167 189.5 12.6552 189.5 15.4167V85.3333H158.5V15.4167Z" fill="#F4511E"/>
<path d="M194.5 8.33331C194.5 5.57189 196.739 3.33331 199.5 3.33331H220.5C223.261 3.33331 225.5 5.57189 225.5 8.33331V85.3333H194.5V8.33331Z" fill="#F4511E"/>
<path d="M230.5 32.3333C230.5 29.5719 232.739 27.3333 235.5 27.3333H256.5C259.261 27.3333 261.5 29.5719 261.5 32.3333V85.3333H230.5V32.3333Z" fill="#F4511E"/>
</svg>
