<svg width="268" height="127" viewBox="0 0 268 127" fill="none" xmlns="http://www.w3.org/2000/svg">
<path d="M10.5 104.167C10.5 101.405 12.7386 99.1666 15.5 99.1666H36.5C39.2614 99.1666 41.5 101.405 41.5 104.167V116.167H10.5V104.167Z" fill="white"/>
<path d="M46.5 92.1666C46.5 89.4052 48.7386 87.1666 51.5 87.1666H72.5C75.2614 87.1666 77.5 89.4052 77.5 92.1666V116.167H46.5V92.1666Z" fill="white"/>
<path d="M82.5 77.1666C82.5 74.4052 84.7386 72.1666 87.5 72.1666H108.5C111.261 72.1666 113.5 74.4052 113.5 77.1666V116.167H82.5V77.1666Z" fill="white"/>
<path d="M118.5 63.1666C118.5 60.4052 120.739 58.1666 123.5 58.1666H144.5C147.261 58.1666 149.5 60.4052 149.5 63.1666V116.167H118.5V63.1666Z" fill="white"/>
<path d="M154.5 15.1666C154.5 12.4052 156.739 10.1666 159.5 10.1666H180.5C183.261 10.1666 185.5 12.4052 185.5 15.1666V116.167H154.5V15.1666Z" fill="white"/>
<path d="M190.5 39.1666C190.5 36.4052 192.739 34.1666 195.5 34.1666H216.5C219.261 34.1666 221.5 36.4052 221.5 39.1666V116.167H190.5V39.1666Z" fill="white"/>
<path d="M226.5 63.1666C226.5 60.4052 228.739 58.1666 231.5 58.1666H252.5C255.261 58.1666 257.5 60.4052 257.5 63.1666V116.167H226.5V63.1666Z" fill="white"/>
</svg>
