<svg width="268" height="127" viewBox="0 0 268 127" fill="none" xmlns="http://www.w3.org/2000/svg">
<path d="M10.5 104.833C10.5 102.072 12.7386 99.8333 15.5 99.8333H36.5C39.2614 99.8333 41.5 102.072 41.5 104.833V116.833H10.5V104.833Z" fill="#526D82"/>
<path d="M46.5 92.8333C46.5 90.0719 48.7386 87.8333 51.5 87.8333H72.5C75.2614 87.8333 77.5 90.0719 77.5 92.8333V116.833H46.5V92.8333Z" fill="#526D82"/>
<path d="M82.5 77.8333C82.5 75.0719 84.7386 72.8333 87.5 72.8333H108.5C111.261 72.8333 113.5 75.0719 113.5 77.8333V116.833H82.5V77.8333Z" fill="#526D82"/>
<path d="M118.5 63.8333C118.5 61.0719 120.739 58.8333 123.5 58.8333H144.5C147.261 58.8333 149.5 61.0719 149.5 63.8333V116.833H118.5V63.8333Z" fill="#526D82"/>
<path d="M154.5 15.8333C154.5 13.0719 156.739 10.8333 159.5 10.8333H180.5C183.261 10.8333 185.5 13.0719 185.5 15.8333V116.833H154.5V15.8333Z" fill="#526D82"/>
<path d="M190.5 39.8333C190.5 37.0719 192.739 34.8333 195.5 34.8333H216.5C219.261 34.8333 221.5 37.0719 221.5 39.8333V116.833H190.5V39.8333Z" fill="#526D82"/>
<path d="M226.5 63.8333C226.5 61.0719 228.739 58.8333 231.5 58.8333H252.5C255.261 58.8333 257.5 61.0719 257.5 63.8333V116.833H226.5V63.8333Z" fill="#526D82"/>
</svg>
