<svg width="70" height="71" viewBox="0 0 70 71" fill="none" xmlns="http://www.w3.org/2000/svg">
<rect y="0.208313" width="70" height="70" rx="35" fill="#EDE7F6"/>
<path fill-rule="evenodd" clip-rule="evenodd" d="M24.3581 25.9356H28.8182V29.0265H19.5455V19.7402H22.6364V23.241C26.0937 19.6155 30.0339 18.2083 35 18.2083C44.3888 18.2083 52 25.8195 52 35.2083C52 44.5972 44.3888 52.2083 35 52.2083C25.6112 52.2083 18 44.5972 18 35.2083H21.0909C21.0909 42.8901 27.3182 49.1174 35 49.1174C42.6818 49.1174 48.9091 42.8901 48.9091 35.2083C48.9091 27.5265 42.6818 21.2992 35 21.2992C30.6097 21.2992 27.3417 22.5223 24.3581 25.9356ZM36.5455 33.6629H42.7273V36.7538H33.4545V25.9356H36.5455V33.6629Z" fill="#5E35B1"/>
</svg>
