<svg width="70" height="65" viewBox="0 0 70 65" fill="none" xmlns="http://www.w3.org/2000/svg">
<path d="M25 65C24.5064 64.9976 24.0246 64.849 23.6153 64.5732C23.206 64.2974 22.8876 63.9066 22.7 63.45L10.825 35H0V30H12.5C12.9936 30.0025 13.4754 30.151 13.8847 30.4268C14.294 30.7027 14.6124 31.0935 14.8 31.55L25 55.7L45.15 1.62501C45.3288 1.14651 45.6498 0.734258 46.07 0.443732C46.4901 0.153207 46.9892 -0.00164608 47.5 1.31963e-05C48.0155 0.0090206 48.5157 0.177215 48.9319 0.481551C49.3481 0.785888 49.6601 1.21148 49.825 1.70001L59.3 30H70V35H57.5C56.9759 35.0014 56.4646 34.838 56.0384 34.5329C55.6122 34.2279 55.2927 33.7966 55.125 33.3L47.5 10L27.35 63.375C27.1712 63.8535 26.8502 64.2658 26.43 64.5563C26.0099 64.8468 25.5108 65.0017 25 65Z" fill="#27374D"/>
</svg>
