<svg width="70" height="70" viewBox="0 0 70 70" fill="none" xmlns="http://www.w3.org/2000/svg">
<rect width="70" height="70" rx="35" fill="#FFEBEE"/>
<path d="M36.3371 39.4806C36.3371 38.8441 36.8532 38.328 37.4897 38.328H40.0746L35.4806 33.7339L32.6073 36.6073C32.3911 36.8234 32.098 36.9448 31.7923 36.9448C31.4866 36.9448 31.1934 36.8234 30.9772 36.6073L25.3376 30.9676C24.8875 30.5175 24.8875 29.7877 25.3376 29.3376C25.7877 28.8875 26.5175 28.8875 26.9676 29.3376L31.7923 34.1623L34.6656 31.2889C34.8817 31.0727 35.1749 30.9513 35.4806 30.9513C35.7863 30.9513 36.0795 31.0727 36.2956 31.2889L41.7047 36.698V34.1131C41.7047 34.0335 41.7128 33.9558 41.7281 33.8808C41.8356 33.3556 42.3003 32.9605 42.8573 32.9605C43.4939 32.9605 44.0099 33.4765 44.0099 34.1131V39.4806C44.0099 40.1172 43.4939 40.6332 42.8573 40.6332H37.4897C36.8532 40.6332 36.3371 40.1172 36.3371 39.4806Z" fill="#DC3545"/>
<path d="M35 52C44.3888 52 52 44.3888 52 35C52 25.6112 44.3888 18 35 18C25.6112 18 18 25.6112 18 35C18 44.3888 25.6112 52 35 52Z" stroke="#DC3545" stroke-width="3" stroke-linecap="round" stroke-linejoin="round"/>
</svg>
