<svg width="70" height="70" viewBox="0 0 70 70" fill="none" xmlns="http://www.w3.org/2000/svg">
<rect width="70" height="70" rx="35" fill="#EDE7F6"/>
<path d="M35 24.5806C31.3669 24.5806 28.4194 27.5282 28.4194 31.1613C28.4194 34.7944 31.3669 37.7419 35 37.7419C38.6331 37.7419 41.5806 34.7944 41.5806 31.1613C41.5806 27.5282 38.6331 24.5806 35 24.5806ZM35 34.4516C33.1835 34.4516 31.7097 32.9778 31.7097 31.1613C31.7097 29.3448 33.1835 27.871 35 27.871C36.8165 27.871 38.2903 29.3448 38.2903 31.1613C38.2903 32.9778 36.8165 34.4516 35 34.4516ZM35 18C25.6089 18 18 25.6089 18 35C18 44.3911 25.6089 52 35 52C44.3911 52 52 44.3911 52 35C52 25.6089 44.3911 18 35 18ZM35 48.7097C31.5931 48.7097 28.481 47.4552 26.0819 45.3919C27.1032 43.8153 28.8512 42.746 30.8528 42.6843C32.2786 43.123 33.6359 43.3423 35 43.3423C36.3641 43.3423 37.7214 43.1298 39.1472 42.6843C41.1488 42.7528 42.8968 43.8153 43.9181 45.3919C41.519 47.4552 38.4069 48.7097 35 48.7097ZM46.1528 42.9448C44.4802 40.7923 41.896 39.3871 38.9484 39.3871C38.2492 39.3871 37.1661 40.0452 35 40.0452C32.8407 40.0452 31.7508 39.3871 31.0516 39.3871C28.1109 39.3871 25.5266 40.7923 23.8472 42.9448C22.2431 40.7032 21.2903 37.9613 21.2903 35C21.2903 27.4391 27.4391 21.2903 35 21.2903C42.5609 21.2903 48.7097 27.4391 48.7097 35C48.7097 37.9613 47.7569 40.7032 46.1528 42.9448Z" fill="#673AB7"/>
</svg>
