<svg width="70" height="71" viewBox="0 0 70 71" fill="none" xmlns="http://www.w3.org/2000/svg">
<rect y="0.958252" width="70" height="70" rx="35" fill="#FBE9E7"/>
<path d="M35 18.9583C31.6377 18.9583 28.3509 19.9553 25.5553 21.8233C22.7597 23.6913 20.5807 26.3463 19.2941 29.4526C18.0074 32.559 17.6707 35.9771 18.3267 39.2748C18.9826 42.5725 20.6017 45.6016 22.9792 47.9791C25.3567 50.3566 28.3858 51.9756 31.6835 52.6316C34.9811 53.2875 38.3993 52.9509 41.5056 51.6642C44.612 50.3775 47.267 48.1986 49.135 45.4029C51.003 42.6073 52 39.3205 52 35.9582C51.9949 31.4511 50.2022 27.1301 47.0152 23.9431C43.8282 20.7561 39.5071 18.9634 35 18.9583ZM35 50.3429C32.155 50.3429 29.3739 49.4992 27.0083 47.9186C24.6428 46.338 22.7991 44.0914 21.7104 41.463C20.6216 38.8346 20.3368 35.9423 20.8918 33.1519C21.4468 30.3616 22.8168 27.7985 24.8285 25.7868C26.8403 23.7751 29.4034 22.4051 32.1937 21.85C34.984 21.295 37.8763 21.5799 40.5048 22.6686C43.1332 23.7573 45.3798 25.601 46.9604 27.9666C48.541 30.3321 49.3846 33.1132 49.3846 35.9582C49.3803 39.772 47.8634 43.4282 45.1667 46.1249C42.47 48.8217 38.8137 50.3386 35 50.3429ZM39.2995 35.0129L33.6918 42.4958H38.9231C39.2699 42.4958 39.6025 42.6335 39.8478 42.8788C40.093 43.124 40.2308 43.4566 40.2308 43.8034C40.2308 44.1503 40.093 44.4829 39.8478 44.7281C39.6025 44.9734 39.2699 45.1111 38.9231 45.1111H31.1288C31.1114 45.1118 31.094 45.1123 31.0768 45.1123C30.8317 45.1121 30.5915 45.0431 30.3837 44.9132C30.1759 44.7832 30.0088 44.5974 29.9014 44.3771C29.7941 44.1568 29.7508 43.9107 29.7764 43.6669C29.8021 43.4232 29.8957 43.1916 30.0467 42.9984L37.1855 33.4727C37.3852 33.1688 37.5193 32.8268 37.5794 32.4682C37.6395 32.1097 37.6242 31.7425 37.5345 31.3902C37.4447 31.0379 37.2826 30.7082 37.0583 30.4221C36.8341 30.1359 36.5526 29.8997 36.232 29.7284C35.9113 29.5571 35.5585 29.4545 35.1959 29.4272C34.8334 29.3999 34.4692 29.4484 34.1265 29.5697C33.7838 29.691 33.4701 29.8824 33.2055 30.1317C32.9409 30.381 32.7311 30.6827 32.5896 31.0175C32.5227 31.1757 32.4253 31.3191 32.303 31.4397C32.1806 31.5602 32.0358 31.6554 31.8766 31.72C31.7175 31.7845 31.5472 31.8171 31.3755 31.8158C31.2037 31.8145 31.034 31.7795 30.8758 31.7126C30.7176 31.6457 30.5742 31.5483 30.4537 31.426C30.3331 31.3036 30.2379 31.1588 30.1733 30.9996C30.1088 30.8405 30.0762 30.6702 30.0775 30.4985C30.0788 30.3267 30.1139 30.1569 30.1808 29.9988C30.4648 29.3268 30.8863 28.7216 31.4182 28.2222C31.95 27.7227 32.5805 27.3401 33.269 27.0988C33.9575 26.8575 34.6889 26.7628 35.4162 26.821C36.1434 26.8791 36.8505 27.0887 37.4919 27.4363C38.1334 27.7839 38.695 28.2619 39.1408 28.8395C39.5866 29.417 39.9066 30.0815 40.0803 30.7901C40.254 31.4987 40.2776 32.2358 40.1495 32.954C40.0215 33.6723 39.7446 34.3558 39.3367 34.9607C39.3247 34.9784 39.3124 34.9958 39.2995 35.0129Z" fill="#F4511E"/>
</svg>
