<svg width="70" height="71" viewBox="0 0 70 71" fill="none" xmlns="http://www.w3.org/2000/svg">
<rect y="0.875" width="70" height="70" rx="35" fill="#FBE9E7"/>
<path d="M35 18.875C31.6377 18.875 28.3509 19.872 25.5553 21.74C22.7597 23.608 20.5807 26.263 19.2941 29.3694C18.0074 32.4757 17.6707 35.8939 18.3267 39.1915C18.9826 42.4892 20.6017 45.5183 22.9792 47.8958C25.3567 50.2733 28.3858 51.8924 31.6835 52.5483C34.9811 53.2043 38.3993 52.8676 41.5056 51.5809C44.612 50.2943 47.267 48.1153 49.135 45.3197C51.003 42.5241 52 39.2373 52 35.875C51.9949 31.3679 50.2022 27.0468 47.0152 23.8598C43.8282 20.6728 39.5071 18.8801 35 18.875ZM35 50.2596C32.155 50.2596 29.3739 49.416 27.0083 47.8354C24.6428 46.2548 22.7991 44.0082 21.7104 41.3798C20.6216 38.7513 20.3368 35.859 20.8918 33.0687C21.4468 30.2784 22.8168 27.7153 24.8285 25.7035C26.8403 23.6918 29.4034 22.3218 32.1937 21.7668C34.984 21.2117 37.8763 21.4966 40.5048 22.5853C43.1332 23.6741 45.3798 25.5178 46.9604 27.8833C48.541 30.2489 49.3846 33.03 49.3846 35.875C49.3803 39.6887 47.8634 43.345 45.1667 46.0417C42.47 48.7384 38.8137 50.2553 35 50.2596ZM38.5077 35.6371C39.6107 36.7409 40.2302 38.2374 40.2299 39.7978C40.2297 41.3582 39.6097 42.8546 38.5063 43.9579C37.403 45.0613 35.9066 45.6812 34.3462 45.6814C32.7858 45.6817 31.2892 45.0622 30.1856 43.9592C29.9403 43.7139 29.8025 43.3813 29.8025 43.0344C29.8025 42.6876 29.9403 42.3549 30.1856 42.1097C30.4308 41.8644 30.7635 41.7266 31.1103 41.7266C31.4571 41.7266 31.7898 41.8644 32.035 42.1097C32.4152 42.4898 32.8832 42.7704 33.3977 42.9264C33.9122 43.0825 34.4572 43.1092 34.9845 43.0043C35.5118 42.8995 36.005 42.6661 36.4206 42.3251C36.8362 41.984 37.1612 41.5457 37.367 41.049C37.5727 40.5523 37.6528 40.0126 37.6001 39.4775C37.5474 38.9425 37.3635 38.4287 37.0648 37.9817C36.7662 37.5347 36.3618 37.1683 35.8877 36.9149C35.4136 36.6614 34.8843 36.5288 34.3466 36.5288C34.1074 36.5289 33.8728 36.4632 33.6683 36.3392C33.4638 36.2151 33.2972 36.0373 33.1867 35.8251C33.0763 35.613 33.0261 35.3746 33.0417 35.1359C33.0573 34.8972 33.138 34.6673 33.2752 34.4714L36.4116 29.9891H31.0764C30.7296 29.9891 30.397 29.8513 30.1518 29.6061C29.9065 29.3609 29.7688 29.0282 29.7688 28.6814C29.7688 28.3346 29.9065 28.002 30.1518 27.7567C30.397 27.5115 30.7296 27.3737 31.0764 27.3737H38.9226C39.1618 27.3737 39.3964 27.4393 39.6009 27.5634C39.8055 27.6875 39.972 27.8653 40.0825 28.0774C40.193 28.2896 40.2432 28.528 40.2276 28.7667C40.212 29.0054 40.1312 29.2352 39.994 29.4312L36.5583 34.3414C37.2885 34.6382 37.9514 35.0788 38.5077 35.6371Z" fill="#F4511E"/>
</svg>
