<svg width="70" height="71" viewBox="0 0 70 71" fill="none" xmlns="http://www.w3.org/2000/svg">
<rect y="0.041748" width="70" height="70" rx="35" fill="#FBE9E7"/>
<path d="M35 18.0417C31.6377 18.0417 28.3509 19.0388 25.5553 20.9068C22.7597 22.7747 20.5807 25.4298 19.2941 28.5361C18.0074 31.6425 17.6707 35.0606 18.3267 38.3583C18.9826 41.656 20.6017 44.6851 22.9792 47.0626C25.3567 49.4401 28.3858 51.0591 31.6835 51.7151C34.9811 52.371 38.3993 52.0344 41.5056 50.7477C44.612 49.461 47.267 47.2821 49.135 44.4864C51.003 41.6908 52 38.404 52 35.0417C51.9949 30.5346 50.2022 26.2136 47.0152 23.0266C43.8282 19.8396 39.5071 18.0468 35 18.0417ZM35 49.4264C32.155 49.4264 29.3739 48.5827 27.0083 47.0021C24.6428 45.4215 22.7991 43.1749 21.7104 40.5465C20.6216 37.9181 20.3368 35.0258 20.8918 32.2354C21.4468 29.4451 22.8168 26.882 24.8285 24.8703C26.8403 22.8586 29.4034 21.4886 32.1937 20.9335C34.984 20.3785 37.8763 20.6634 40.5048 21.7521C43.1332 22.8408 45.3798 24.6845 46.9604 27.0501C48.541 29.4156 49.3846 32.1967 49.3846 35.0417C49.3803 38.8555 47.8634 42.5117 45.1667 45.2084C42.47 47.9051 38.8137 49.422 35 49.4264ZM36.9615 27.8494V42.8879C36.9615 43.2347 36.8238 43.5673 36.5785 43.8126C36.3333 44.0578 36.0007 44.1956 35.6539 44.1956C35.307 44.1956 34.9744 44.0578 34.7292 43.8126C34.4839 43.5673 34.3462 43.2347 34.3462 42.8879V30.2923L32.456 31.5519C32.3131 31.6474 32.1528 31.7138 31.9842 31.7473C31.8156 31.7808 31.6421 31.7807 31.4735 31.7471C31.305 31.7134 31.1447 31.6469 31.0019 31.5513C30.8591 31.4557 30.7365 31.3328 30.6412 31.1898C30.5459 31.0468 30.4797 30.8864 30.4464 30.7178C30.4132 30.5492 30.4135 30.3756 30.4473 30.2071C30.4811 30.0386 30.5479 29.8784 30.6437 29.7357C30.7395 29.5931 30.8624 29.4706 31.0056 29.3755L34.9287 26.7612C35.1256 26.63 35.3545 26.5547 35.5909 26.5433C35.8273 26.5319 36.0623 26.5849 36.271 26.6966C36.4796 26.8083 36.654 26.9745 36.7757 27.1775C36.8973 27.3805 36.9615 27.6128 36.9615 27.8494Z" fill="#F4511E"/>
</svg>
