<svg width="70" height="71" viewBox="0 0 70 71" fill="none" xmlns="http://www.w3.org/2000/svg">
<rect y="0.291687" width="70" height="70" rx="35" fill="#FFEBEE"/>
<path d="M36.7469 33.6183V24.1715C36.7469 23.9455 36.6571 23.7287 36.4973 23.5689C36.3375 23.4091 36.1208 23.3193 35.8948 23.3193H34.1905C33.9645 23.3193 33.7478 23.4091 33.588 23.5689C33.4282 23.7287 33.3384 23.9455 33.3384 24.1715V34.8965C33.3384 35.1224 33.4282 35.3391 33.5881 35.4989L38.9565 40.8674C39.1163 41.0271 39.333 41.1169 39.559 41.1169C39.7849 41.1169 40.0016 41.0271 40.1614 40.8674L41.2999 39.7289C41.4596 39.5691 41.5494 39.3524 41.5494 39.1265C41.5494 38.9005 41.4596 38.6838 41.2999 38.524L36.9932 34.2173C36.8355 34.0578 36.747 33.8426 36.7469 33.6183Z" fill="#E53935"/>
<path d="M48.7304 36.9535C48.4123 39.5181 47.3804 41.9418 45.7522 43.9487C44.124 45.9555 41.965 47.4648 39.521 48.3047C37.0771 49.1445 34.4463 49.2812 31.9285 48.6991C29.4106 48.117 27.1069 46.8395 25.2795 45.0122C23.4522 43.1848 22.1747 40.881 21.5926 38.3632C21.0105 35.8453 21.1472 33.2146 21.987 30.7707C22.8269 28.3267 24.3362 26.1677 26.343 24.5395C28.3499 22.9113 30.7736 21.8794 33.3382 21.5613V18.2917C30.1289 18.6143 27.0771 19.841 24.5373 21.8292C21.9975 23.8174 20.0741 26.4855 18.9905 29.5235C17.9069 32.5615 17.7077 35.8447 18.416 38.9914C19.1243 42.1381 20.711 45.0192 22.9917 47.3C25.2724 49.5807 28.1536 51.1674 31.3003 51.8757C34.447 52.584 37.7301 52.3848 40.7681 51.3012C43.8061 50.2176 46.4743 48.2942 48.4625 45.7544C50.4507 43.2146 51.6774 40.1628 52 36.9535H48.7304ZM42.0053 19.7054C40.3404 18.9531 38.5645 18.4757 36.7468 18.2917V21.5613C37.9963 21.7188 39.2182 22.048 40.3777 22.5396L42.0053 19.7054ZM46.1424 27.0849L48.992 25.4914C47.889 23.9113 46.5275 22.5285 44.9648 21.4011L43.3312 24.2456C44.3994 25.0525 45.3462 26.0087 46.1424 27.0849ZM47.8032 30.0631C48.2652 31.1775 48.577 32.3484 48.7304 33.5449H52C51.823 31.7914 51.3728 30.0763 50.6656 28.4619L47.8032 30.0631Z" fill="#E53935"/>
</svg>
