<svg width="70" height="71" viewBox="0 0 70 71" fill="none" xmlns="http://www.w3.org/2000/svg">
<rect y="0.458374" width="70" height="70" rx="35" fill="#E1F5FE"/>
<path d="M30.1429 52.4584C29.9031 52.4571 29.6691 52.3794 29.4703 52.2351C29.2715 52.0908 29.1168 51.8864 29.0257 51.6476L23.2579 36.7661H18V34.1507H24.0714C24.3112 34.152 24.5452 34.2297 24.744 34.3739C24.9428 34.5182 25.0975 34.7226 25.1886 34.9615L30.1429 47.5938L39.93 19.3084C40.0168 19.0581 40.1728 18.8424 40.3769 18.6905C40.5809 18.5385 40.8233 18.4575 41.0714 18.4584C41.3218 18.4631 41.5648 18.5511 41.7669 18.7103C41.9691 18.8695 42.1206 19.0921 42.2007 19.3476L46.8029 34.1507H52V36.7661H45.9286C45.674 36.7668 45.4257 36.6813 45.2187 36.5217C45.0117 36.3622 44.8565 36.1366 44.775 35.8768L41.0714 23.6891L31.2843 51.6084C31.1974 51.8587 31.0415 52.0743 30.8374 52.2263C30.6334 52.3782 30.391 52.4592 30.1429 52.4584Z" fill="#039BE5"/>
</svg>
