<svg width="71" height="70" viewBox="0 0 71 70" fill="none" xmlns="http://www.w3.org/2000/svg">
<rect x="0.5" width="70" height="70" rx="35" fill="white"/>
<path d="M42.2389 49.4407C42.2389 49.4407 42.1745 49.3903 42.16 49.3782L42.2389 49.4407ZM42.2389 49.4407C42.3149 49.499 42.4377 49.5889 42.6073 49.7004L42.2389 49.4407ZM23.7152 38.5172H22.2152H20.233L22.9067 43.9827L22.9067 43.9827C23.1411 44.4618 23.4279 44.869 23.7453 45.1998L25.2904 46.8104C26.6274 46.3671 27.6409 45.8196 28.3644 45.3764L29.2806 44.8151L30.1069 45.5019C31.2177 46.4253 32.9729 47.6207 35.3734 47.6207C37.7496 47.6207 39.4937 46.4492 40.6066 45.5294L41.4611 44.8231L42.3871 45.4328L42.3957 45.4384C42.7599 45.6779 43.3114 46.0001 44.0495 46.3236L23.7152 38.5172ZM23.7152 38.5172V37.0172M23.7152 38.5172V37.0172M23.7152 37.0172V25.069H25.1013V37.0172V38.5172H26.6013H50.8507L49.3062 43.2529C49.3062 43.2529 49.3062 43.253 49.3061 43.253C49.0291 44.102 48.5922 44.7919 48.0796 45.2937L46.2555 47.0792M23.7152 37.0172L46.2555 47.0792M46.2555 47.0792C45.3926 46.857 44.6575 46.5898 44.0497 46.3236L46.2555 47.0792ZM43.5836 51.9179C43.5835 51.9179 43.5835 51.9178 43.5835 51.9178L43.7393 51.5621M43.5836 51.9179L43.7394 51.5621M43.5836 51.9179C43.6849 51.9623 43.7894 52.0066 43.8971 52.0508L43.4477 53.0768L43.8972 52.0508C45.4857 52.7023 47.763 53.3103 50.7245 53.3103C50.5067 53.3103 50.3787 53.2008 50.3399 53.1552C50.3787 53.1096 50.5067 53 50.7245 53C47.7465 53 45.5237 52.3485 44.0497 51.7029C43.9423 51.6559 43.8388 51.6089 43.7394 51.5621M43.5836 51.9179L44.1853 50.5438M43.7393 51.5621C43.7393 51.5621 43.7393 51.5621 43.7394 51.5621M43.7393 51.5621L44.1853 50.5438M43.7393 51.5621C43.1556 51.2878 42.7079 51.0229 42.3968 50.8184M43.7394 51.5621L44.1853 50.5438M44.1853 50.5438L42.3968 50.8184M42.3968 50.8184C42.3964 50.8182 42.3961 50.818 42.3957 50.8177L42.3968 50.8184ZM19.9737 37.9873C19.9738 37.9874 19.9739 37.9876 19.9739 37.9877L19.9738 37.9874L19.9737 37.9873ZM50.3168 53.1207C50.3168 53.1206 50.3169 53.1209 50.3171 53.1216L50.3168 53.1207ZM41.2594 17H46.7679C46.7816 17.0061 46.8119 17.0252 46.8551 17.0781C46.9412 17.1837 47.0315 17.3816 47.0315 17.6517V22.069H41.2594V17ZM46.7599 16.9975C46.7599 16.9973 46.7622 16.9976 46.7664 16.9993C46.7619 16.9987 46.7598 16.9978 46.7599 16.9975ZM41.2594 27.7586H47.0315V32.1759C47.0315 32.446 46.9412 32.6439 46.8551 32.7495C46.8119 32.8024 46.7816 32.8215 46.7679 32.8276H41.2594V27.7586ZM46.7599 32.8301C46.7597 32.8298 46.7619 32.8289 46.7664 32.8282C46.7623 32.83 46.76 32.8303 46.7599 32.8301ZM30.2943 17.6517C30.2943 17.3816 30.3846 17.1837 30.4707 17.0781C30.5138 17.0252 30.5442 17.0061 30.5579 17H36.0664V22.069H30.2943V17.6517ZM30.5659 16.9975C30.566 16.9978 30.5639 16.9987 30.5594 16.9993C30.5636 16.9976 30.5659 16.9973 30.5659 16.9975ZM30.2943 32.1759V27.7586H36.0664V32.8276H30.5579C30.5442 32.8215 30.5138 32.8024 30.4707 32.7495C30.3846 32.6439 30.2943 32.446 30.2943 32.1759ZM30.5659 32.83C30.5659 32.8303 30.5636 32.83 30.5594 32.8282C30.5639 32.8289 30.566 32.8297 30.5659 32.83Z" stroke="url(#paint0_linear_2852_1225)" stroke-width="3"/>
<defs>
<linearGradient id="paint0_linear_2852_1225" x1="35.5" y1="15.5" x2="35.5" y2="54.5" gradientUnits="userSpaceOnUse">
<stop stop-color="#27374D"/>
<stop offset="1" stop-color="#27374D" stop-opacity="0.5"/>
</linearGradient>
</defs>
</svg>
