<svg width="70" height="70" viewBox="0 0 70 70" fill="none" xmlns="http://www.w3.org/2000/svg">
<rect width="70" height="70" rx="35" fill="white"/>
<path d="M20.8132 45.2287C20.9794 45.7086 21.3048 46.093 21.7177 46.2973C22.1307 46.5017 22.5974 46.5092 23.0152 46.3183C23.433 46.1273 23.7676 45.7536 23.9455 45.2793C24.1234 44.805 24.13 44.2689 23.9637 43.789L22.0666 38.3024L33.3138 35.4424V44.684C33.3138 45.2 33.4923 45.6948 33.81 46.0597C34.1276 46.4246 34.5585 46.6296 35.0077 46.6296C35.4569 46.6296 35.8878 46.4246 36.2054 46.0597C36.5231 45.6948 36.7016 45.2 36.7016 44.684V35.4424L47.9488 38.3024L46.0517 43.789C45.9691 44.0266 45.9282 44.2805 45.9313 44.5363C45.9343 44.7921 45.9812 45.0446 46.0693 45.2796C46.1574 45.5145 46.285 45.7272 46.4447 45.9054C46.6044 46.0836 46.7932 46.2239 47.0002 46.3183C47.1997 46.4088 47.4124 46.4551 47.6269 46.4545C47.9662 46.4548 48.2977 46.3382 48.5786 46.1197C48.8594 45.9011 49.0767 45.5907 49.2022 45.2287L51.8277 37.6214C51.9178 37.3583 51.9569 37.0758 51.9423 36.7936C51.9277 36.5113 51.8597 36.2361 51.743 35.9871C51.6298 35.7391 51.4713 35.522 51.2784 35.3507C51.0855 35.1795 50.8626 35.0581 50.6251 34.9949L45.1708 33.6135V25.228C45.1708 24.712 44.9924 24.2171 44.6747 23.8522C44.3571 23.4874 43.9262 23.2824 43.477 23.2824H40.0893V17.4456C40.0893 16.9296 39.9108 16.4347 39.5932 16.0699C39.2755 15.705 38.8447 15.5 38.3954 15.5H31.62C31.1707 15.5 30.7399 15.705 30.4222 16.0699C30.1046 16.4347 29.9261 16.9296 29.9261 17.4456V23.2824H26.5384C26.0892 23.2824 25.6583 23.4874 25.3407 23.8522C25.023 24.2171 24.8445 24.712 24.8445 25.228V33.6135L19.3903 34.956C19.1528 35.0192 18.9299 35.1406 18.737 35.3118C18.544 35.4831 18.3856 35.7002 18.2724 35.9482C18.1557 36.1972 18.0877 36.4724 18.0731 36.7547C18.0585 37.0369 18.0976 37.3194 18.1877 37.5825L20.8132 45.2287ZM33.3138 19.3912H36.7016V23.2824H33.3138V19.3912ZM28.2323 27.1736H41.7831V32.738L35.3803 31.0648H35.211H35.0077H34.8044H34.635L28.2323 32.738V27.1736ZM49.7612 49.1199C49.1669 49.3291 48.5978 49.6233 48.0673 49.9954C47.5277 50.3579 46.9139 50.5489 46.2888 50.5489C45.6637 50.5489 45.0498 50.3579 44.5102 49.9954C43.3368 49.2351 42.0124 48.8356 40.6652 48.8356C39.3179 48.8356 37.9935 49.2351 36.8201 49.9954C36.2731 50.3537 35.6543 50.5421 35.0246 50.5421C34.395 50.5421 33.7761 50.3537 33.2291 49.9954C32.0547 49.2388 30.7307 48.8414 29.3841 48.8414C28.0375 48.8414 26.7135 49.2388 25.539 49.9954C24.9994 50.3579 24.3856 50.5489 23.7605 50.5489C23.1354 50.5489 22.5215 50.3579 21.9819 49.9954C21.4515 49.6233 20.8824 49.3291 20.2881 49.1199C20.0627 49.0279 19.8229 48.9917 19.5845 49.0138C19.346 49.0359 19.1144 49.1157 18.9048 49.2481C18.6951 49.3804 18.5123 49.5622 18.3682 49.7816C18.2242 50.001 18.1223 50.2529 18.0691 50.5208C17.9427 51.0135 17.991 51.5437 18.2036 51.9957C18.4162 52.4477 18.7759 52.7847 19.204 52.9333C19.5451 53.0394 19.8705 53.2034 20.1695 53.4197C21.1972 54.1123 22.3657 54.4815 23.5572 54.4898C24.7947 54.49 26.0103 54.1141 27.0804 53.4002C27.7444 52.9796 28.4903 52.7589 29.2486 52.7589C30.0069 52.7589 30.7528 52.9796 31.4167 53.4002C32.4793 54.0981 33.6821 54.4652 34.9061 54.4652C36.1301 54.4652 37.3329 54.0981 38.3954 53.4002C39.0594 52.9796 39.8053 52.7589 40.5636 52.7589C41.3218 52.7589 42.0677 52.9796 42.7317 53.4002C43.7816 54.12 44.9814 54.5 46.2041 54.5C47.4268 54.5 48.6266 54.12 49.6765 53.4002C49.9755 53.1839 50.3009 53.02 50.642 52.9138C50.8674 52.8615 51.0812 52.7569 51.2703 52.6065C51.4594 52.4562 51.6198 52.2632 51.7419 52.0392C51.8639 51.8153 51.945 51.5652 51.9801 51.3042C52.0153 51.0431 52.0037 50.7766 51.9463 50.5208C51.8924 50.2575 51.7914 50.0099 51.6496 49.794C51.5078 49.5781 51.3284 49.3984 51.1228 49.2666C50.9172 49.1348 50.6899 49.0537 50.4555 49.0284C50.221 49.0032 49.9846 49.0343 49.7612 49.1199Z" fill="url(#paint0_linear_2852_1214)"/>
<defs>
<linearGradient id="paint0_linear_2852_1214" x1="35" y1="15.5" x2="35" y2="54.5" gradientUnits="userSpaceOnUse">
<stop stop-color="#27374D"/>
<stop offset="1" stop-color="#27374D" stop-opacity="0.5"/>
</linearGradient>
</defs>
</svg>
