<svg width="70" height="70" viewBox="0 0 70 70" fill="none" xmlns="http://www.w3.org/2000/svg">
<rect width="70" height="70" rx="35" fill="white"/>
<path d="M41.8 38.1875C39.6219 38.1875 38.5746 39.25 35 39.25C31.4254 39.25 30.3857 38.1875 28.2 38.1875C22.5687 38.1875 18 42.1852 18 47.1125V48.8125C18 50.5723 19.6317 52 21.6429 52H48.3571C50.3683 52 52 50.5723 52 48.8125V47.1125C52 42.1852 47.4313 38.1875 41.8 38.1875ZM48.3571 48.8125H21.6429V47.1125C21.6429 43.9516 24.5875 41.375 28.2 41.375C29.308 41.375 31.1067 42.4375 35 42.4375C38.9237 42.4375 40.6844 41.375 41.8 41.375C45.4125 41.375 48.3571 43.9516 48.3571 47.1125V48.8125ZM35 37.125C41.0335 37.125 45.9286 32.8418 45.9286 27.5625C45.9286 22.2832 41.0335 18 35 18C28.9665 18 24.0714 22.2832 24.0714 27.5625C24.0714 32.8418 28.9665 37.125 35 37.125ZM35 21.1875C39.0147 21.1875 42.2857 24.0496 42.2857 27.5625C42.2857 31.0754 39.0147 33.9375 35 33.9375C30.9853 33.9375 27.7143 31.0754 27.7143 27.5625C27.7143 24.0496 30.9853 21.1875 35 21.1875Z" fill="url(#paint0_linear_2852_1181)"/>
<defs>
<linearGradient id="paint0_linear_2852_1181" x1="35" y1="18" x2="35" y2="52" gradientUnits="userSpaceOnUse">
<stop stop-color="#27374D"/>
<stop offset="1" stop-color="#27374D" stop-opacity="0.5"/>
</linearGradient>
</defs>
</svg>
