<svg width="71" height="70" viewBox="0 0 71 70" fill="none" xmlns="http://www.w3.org/2000/svg">
<rect x="0.5" width="70" height="70" rx="35" fill="white"/>
<path d="M47.2273 48.8125C48.8495 48.8125 50.1591 47.3888 50.1591 45.625C50.1591 43.8612 48.8495 42.4375 47.2273 42.4375C45.605 42.4375 44.2955 43.8612 44.2955 45.625C44.2955 47.3888 45.605 48.8125 47.2273 48.8125ZM50.1591 29.6875H45.2727V35H53.99L50.1591 29.6875ZM23.7727 48.8125C25.395 48.8125 26.7045 47.3888 26.7045 45.625C26.7045 43.8612 25.395 42.4375 23.7727 42.4375C22.1505 42.4375 20.8409 43.8612 20.8409 45.625C20.8409 47.3888 22.1505 48.8125 23.7727 48.8125ZM51.1364 26.5L57 35V45.625H53.0909C53.0909 49.1525 50.4718 52 47.2273 52C43.9827 52 41.3636 49.1525 41.3636 45.625H29.6364C29.6364 49.1525 27.0173 52 23.7727 52C20.5282 52 17.9091 49.1525 17.9091 45.625H14V22.25C14 19.8912 15.7395 18 17.9091 18H45.2727V26.5H51.1364ZM17.9091 22.25V41.375H19.3945C20.4695 40.0788 22.0332 39.25 23.7727 39.25C25.5123 39.25 27.0759 40.0788 28.1509 41.375H41.3636V22.25H17.9091ZM31.5909 24.375L38.4318 31.8125L31.5909 39.25V33.9375H21.8182V29.6875H31.5909V24.375Z" fill="url(#paint0_linear_2852_1192)"/>
<defs>
<linearGradient id="paint0_linear_2852_1192" x1="35.5" y1="18" x2="35.5" y2="52" gradientUnits="userSpaceOnUse">
<stop stop-color="#27374D"/>
<stop offset="1" stop-color="#27374D" stop-opacity="0.5"/>
</linearGradient>
</defs>
</svg>
