<svg width="70" height="71" viewBox="0 0 70 71" fill="none" xmlns="http://www.w3.org/2000/svg">
<rect y="0.458374" width="70" height="70" rx="35" fill="#E1F5FE"/>
<path d="M35.7194 36.6259H31.8441C31.5872 36.6259 31.3407 36.7279 31.159 36.9096C30.9774 37.0913 30.8753 37.3377 30.8753 37.5947C30.8753 37.8516 30.9774 38.0981 31.159 38.2797C31.3407 38.4614 31.5872 38.5635 31.8441 38.5635H35.7194C35.9763 38.5635 36.2228 38.4614 36.4045 38.2797C36.5861 38.0981 36.6882 37.8516 36.6882 37.5947C36.6882 37.3377 36.5861 37.0913 36.4045 36.9096C36.2228 36.7279 35.9763 36.6259 35.7194 36.6259ZM39.5947 26.9376H38.4515C38.2516 26.3723 37.8817 25.8826 37.3926 25.5357C36.9035 25.1888 36.319 25.0017 35.7194 25H33.7818C33.1821 25.0017 32.5977 25.1888 32.1085 25.5357C31.6194 25.8826 31.2496 26.3723 31.0497 26.9376H29.9065C29.1356 26.9376 28.3964 27.2439 27.8513 27.7889C27.3062 28.334 27 29.0733 27 29.8441V41.47C27 42.2408 27.3062 42.9801 27.8513 43.5252C28.3964 44.0702 29.1356 44.3764 29.9065 44.3764H39.5947C40.3655 44.3764 41.1048 44.0702 41.6499 43.5252C42.1949 42.9801 42.5012 42.2408 42.5012 41.47V29.8441C42.5012 29.0733 42.1949 28.334 41.6499 27.7889C41.1048 27.2439 40.3655 26.9376 39.5947 26.9376ZM32.8129 27.9065C32.8129 27.6495 32.915 27.4031 33.0967 27.2214C33.2784 27.0397 33.5248 26.9376 33.7818 26.9376H35.7194C35.9763 26.9376 36.2228 27.0397 36.4045 27.2214C36.5861 27.4031 36.6882 27.6495 36.6882 27.9065V28.8753H32.8129V27.9065ZM40.5635 41.47C40.5635 41.7269 40.4614 41.9733 40.2797 42.155C40.0981 42.3367 39.8516 42.4388 39.5947 42.4388H29.9065C29.6495 42.4388 29.4031 42.3367 29.2214 42.155C29.0397 41.9733 28.9376 41.7269 28.9376 41.47V29.8441C28.9376 29.5872 29.0397 29.3407 29.2214 29.159C29.4031 28.9774 29.6495 28.8753 29.9065 28.8753H30.8753V29.8441C30.8753 30.1011 30.9774 30.3475 31.159 30.5292C31.3407 30.7109 31.5872 30.8129 31.8441 30.8129H37.657C37.914 30.8129 38.1604 30.7109 38.3421 30.5292C38.5238 30.3475 38.6259 30.1011 38.6259 29.8441V28.8753H39.5947C39.8516 28.8753 40.0981 28.9774 40.2797 29.159C40.4614 29.3407 40.5635 29.5872 40.5635 29.8441V41.47ZM37.657 32.7506H31.8441C31.5872 32.7506 31.3407 32.8526 31.159 33.0343C30.9774 33.216 30.8753 33.4625 30.8753 33.7194C30.8753 33.9763 30.9774 34.2228 31.159 34.4045C31.3407 34.5861 31.5872 34.6882 31.8441 34.6882H37.657C37.914 34.6882 38.1604 34.5861 38.3421 34.4045C38.5238 34.2228 38.6259 33.9763 38.6259 33.7194C38.6259 33.4625 38.5238 33.216 38.3421 33.0343C38.1604 32.8526 37.914 32.7506 37.657 32.7506Z" fill="#039BE5"/>
<path d="M35 52.4584C44.3888 52.4584 52 44.8471 52 35.4584C52 26.0695 44.3888 18.4584 35 18.4584C25.6112 18.4584 18 26.0695 18 35.4584C18 44.8471 25.6112 52.4584 35 52.4584Z" stroke="#039BE5" stroke-width="3" stroke-linecap="round" stroke-linejoin="round"/>
</svg>
