<svg width="91" height="84" viewBox="0 0 91 84" fill="none" xmlns="http://www.w3.org/2000/svg">
<path d="M32.7103 83.5666C32.079 83.5635 31.4628 83.3735 30.9394 83.0208C30.4159 82.668 30.0085 82.1681 29.7687 81.5842L14.5808 45.1974H0.735962V38.8026H16.7231C17.3544 38.8057 17.9706 38.9957 18.4941 39.3484C19.0175 39.7012 19.4249 40.2011 19.6648 40.785L32.7103 71.6722L58.4816 2.5117C58.7103 1.89971 59.1209 1.37245 59.6583 1.00087C60.1956 0.629297 60.8339 0.431244 61.4872 0.433366C62.1466 0.444887 62.7862 0.660002 63.3186 1.04924C63.8509 1.43848 64.2499 1.9828 64.4608 2.60762L76.5791 38.8026H90.2641V45.1974H74.2769C73.6066 45.1992 72.9527 44.9902 72.4076 44.6C71.8625 44.2099 71.4539 43.6583 71.2394 43.0232L61.4872 13.2231L35.7159 81.4883C35.4872 82.1003 35.0766 82.6276 34.5392 82.9991C34.0019 83.3707 33.3636 83.5688 32.7103 83.5666Z" fill="white"/>
</svg>
